<?xml version="1.0" encoding="iso-8859-1"?>
<!-- Generator: Adobe Illustrator 16.0.0, SVG Export Plug-In . SVG Version: 6.00 Build 0)  -->
<!DOCTYPE svg PUBLIC "-//W3C//DTD SVG 1.1//EN" "http://www.w3.org/Graphics/SVG/1.1/DTD/svg11.dtd">
<svg fill="#FFF" version="1.1" id="Capa_1" xmlns="http://www.w3.org/2000/svg" xmlns:xlink="http://www.w3.org/1999/xlink" x="0px" y="0px"
	 width="66px" height="66px" viewBox="0 0 66 66" style="enable-background:new 0 0 66 66;" xml:space="preserve">
<g>
	<g>
		<path d="M0,1.5v63C0,65.328,0.672,66,1.5,66h63c0.828,0,1.5-0.672,1.5-1.5v-63C66,0.672,65.328,0,64.5,0h-63
			C0.672,0,0,0.672,0,1.5z M17.916,33h3.75V3h5.333v30h3.75v29.875c0,0.043,0.009,0.083,0.013,0.125H17.904
			c0.004-0.042,0.013-0.082,0.013-0.125L17.916,33L17.916,33z M46.583,33v30H33.736c0.004-0.042,0.014-0.082,0.014-0.125V33h3.75V3
			h5.333v30H46.583z M63,63H49.583V33h3.75V3H63V63z M3,3h8.166v30h3.75v29.875c0,0.043,0.009,0.083,0.013,0.125H3V3z"/>
	</g>
</g>
<g>
</g>
<g>
</g>
<g>
</g>
<g>
</g>
<g>
</g>
<g>
</g>
<g>
</g>
<g>
</g>
<g>
</g>
<g>
</g>
<g>
</g>
<g>
</g>
<g>
</g>
<g>
</g>
<g>
</g>
</svg>
